# Made in Blockbench 4.12.4
mtllib Sign Advertence.mtl

o cuboid
v 0.125 1 0.125
v 0.125 1 -0.125
v 0.0625 0.2500000000000001 0.0625
v 0.0625 0.2500000000000001 -0.0625
v -0.125 1 0.125
v -0.125 1 -0.125
v -0.0625 0.2500000000000001 0.0625
v -0.0625 0.2500000000000001 -0.0625
vt 0.125 1
vt 0 0.9999999999999994
vt 0.029798595606410627 0.625
vt 0.09229859560641085 0.6250000000000002
vt 0.09375000000000033 0.625
vt 0.12499999999999989 1
vt 0 0.9999999999999998
vt 0.03125000000000017 0.625
vt 0 0.5
vt 0.125 0.5
vt 0.125 0.625
vt 0 0.625
vt 0.078125 0.4375
vt 0.078125 0.5
vt 0.015625 0.5
vt 0.015625 0.4375
vt 0.0922985956064094 0.6250000000000002
vt 0.125 0.9999999999999999
vt 0 1
vt 0.029798595606409184 0.625
vt 0.125 1
vt 0 0.9999999999999996
vt 0.029798595606410627 0.625
vt 0.09229859560641085 0.625
vn 0.9965457582448798 -0.08304547985373999 0
vn -0.9965457582448798 -0.08304547985373999 0
vn 0 1 0
vn 0 -1 0
vn 0 -0.08304547985373999 0.9965457582448798
vn 0 -0.08304547985373999 -0.9965457582448798
usemtl m_afa9e27b-5b88-1aec-d013-5e8390660689
f 2/1/1 1/2/1 3/3/1 4/4/1
f 7/5/2 5/6/2 6/7/2 8/8/2
f 5/9/3 1/10/3 2/11/3 6/12/3
f 4/13/4 3/14/4 7/15/4 8/16/4
f 3/17/5 1/18/5 5/19/5 7/20/5
f 6/21/6 2/22/6 4/23/6 8/24/6
o cuboid
v 0.0625 0.1875 0.0625
v 0.0625 0.1875 -0.0625
v 0.0625 0.0625 0.0625
v 0.0625 0.0625 -0.0625
v -0.0625 0.1875 0.0625
v -0.0625 0.1875 -0.0625
v -0.0625 0.0625 0.0625
v -0.0625 0.0625 -0.0625
vt 0.0703125 0.53125
vt 0.0078125 0.53125
vt 0.0078125 0.46875
vt 0.0703125 0.46875
vt 0.0703125 0.46875
vt 0.0703125 0.53125
vt 0.0078125 0.53125
vt 0.0078125 0.46875
vt 0.0078125 0.46875
vt 0.0703125 0.46875
vt 0.0703125 0.53125
vt 0.0078125 0.53125
vt 0.0703125 0.46875
vt 0.0703125 0.53125
vt 0.0078125 0.53125
vt 0.0078125 0.46875
vt 0.0703125 0.46875
vt 0.0703125 0.53125
vt 0.0078125 0.53125
vt 0.0078125 0.46875
vt 0.0703125 0.53125
vt 0.0078125 0.53125
vt 0.0078125 0.46875
vt 0.0703125 0.46875
vn 1 0 0
vn -1 0 0
vn 0 1 0
vn 0 -1 0
vn 0 0 1
vn 0 0 -1
usemtl m_afa9e27b-5b88-1aec-d013-5e8390660689
f 10/25/7 9/26/7 11/27/7 12/28/7
f 15/29/8 13/30/8 14/31/8 16/32/8
f 13/33/9 9/34/9 10/35/9 14/36/9
f 12/37/10 11/38/10 15/39/10 16/40/10
f 11/41/11 9/42/11 13/43/11 15/44/11
f 14/45/12 10/46/12 12/47/12 16/48/12