# Made in Blockbench 4.12.4
mtllib Street (X) (Style 1).mtl

o Asfalt
v -1.25 0.03125 1.5
v -1.25 0.03125 -1.5
v -1.25 -0.03125 -1.5
v -1.25 -0.03125 1.5
v -1.25 0.03125 1.25
v -1.5 0.03125 1.25
v -1.5 -0.03125 1.25
v -1.25 -0.03125 1.25
v 1.5 -0.03125 1.25
v 1.5 0.03125 1.25
v -1.25 0.03125 -1.25
v 1.5 0.03125 -1.25
v -1.25 -0.03125 -1.25
v -1.5 -0.03125 -1.25
v -1.5 0.03125 -1.25
v 1.25 0.03125 -1.25
v 1.25 0.03125 1.25
v 1.25 0.03125 1.5
v 1.25 -0.03125 1.5
v 1.25 -0.03125 1.25
v 1.25 -0.03125 -1.25
v 1.25 -0.03125 -1.5
v 1.25 0.03125 -1.5
v -1.375 -0.0625 -1.5
v -1.375 -0.0625 -1.25
v -1.375 0 -1.5
v -1.375 0 -1.25
v -1.25 -0.0625 -1.375
v -1.5 -0.0625 -1.375
v -1.25 0 -1.375
v -1.5 0 -1.375
v 1.375 -0.0625 -1.25
v 1.375 -0.0625 -1.5
v 1.375 0 -1.25
v 1.375 0 -1.5
v 1.25 -0.0625 -1.375
v 1.5 0 -1.375
v 1.25 0 -1.375
v 1.25 -0.0625 1.375
v 1.5 -0.0625 1.375
v 1.25 0 1.375
v 1.5 0 1.375
v 1.375 -0.0625 1.5
v 1.375 -0.0625 1.25
v 1.375 0 1.5
v 1.375 0 1.25
v -1.375 -0.0625 1.25
v -1.375 -0.0625 1.5
v -1.375 0 1.25
v -1.375 0 1.5
v -1.5 -0.0625 1.375
v -1.25 -0.0625 1.375
v -1.5 0 1.375
v -1.25 0 1.375
v 1.5 -0.0625 -1.375
v 1.5 -0.03125 -1.25
vt 0.703125 1
vt 0.390625 1
vt 0.390625 0.9921875
vt 0.703125 0.9921875
vt 0.0390625 0.65625
vt 0.34375 0.65625
vt 0.34375 0.9609375
vt 0.0390625 0.9609375
vt 0.390625 0.9921875
vt 0.703125 0.9921875
vt 0.703125 1
vt 0.390625 1
vt 0.703125 1
vt 0.390625 1
vt 0.390625 0.9921875
vt 0.703125 0.9921875
vt 0.0390625 0.65625
vt 0.0390625 0.9609375
vt 0 0.9609375
vt 0 0.65625
vt 0.0390625 0.6171875
vt 0.34375 0.6171875
vt 0.34375 0.65625
vt 0.0390625 0.65625
vt 0.0390625 0.9609375
vt 0.34375 0.9609375
vt 0.34375 1
vt 0.0390625 1
vt 0.3828125 0.9609375
vt 0.34375 0.9609375
vt 0.34375 0.65625
vt 0.3828125 0.65625
vt 0.71875 0.98828125
vt 0.71875 0.99609375
vt 0.703125 1
vt 0.703125 0.9921875
vt 0.41086321411026366 0.8125
vt 0.4089684045396673 0.8046875
vt 0.42507428588973634 0.8046875
vt 0.4269690954603327 0.8125
vt 0.015143750000000011 1
vt 0.015143750000000011 0.9609375
vt 0.0390625 0.9609375
vt 0.0390625 1
vt 0.40625 0.7476243090793346
vt 0.4140625 0.749519118649931
vt 0.4140625 0.765625
vt 0.40625 0.7637301904294036
vt 0.375 0.99609375
vt 0.375 0.98828125
vt 0.390625 0.9921875
vt 0.390625 1
vt 0 0.9609375
vt 0.0390625 0.9609375
vt 0.0390625 0.984375
vt 0 0.984375
vt 0.390625 0.9819993090793346
vt 0.3984375 0.983894118649931
vt 0.3984375 1
vt 0.390625 0.9981051904294036
vt 0.375 0.99609375
vt 0.375 0.98828125
vt 0.390625 0.9921875
vt 0.390625 1
vt 0.36766875 0.9609375
vt 0.36766875 1
vt 0.34375 1
vt 0.34375 0.9609375
vt 0.41086321411026366 0.796875
vt 0.4089684045396673 0.7890625
vt 0.42507428588973634 0.7890625
vt 0.4269690954603327 0.796875
vt 0.34375 0.9609375
vt 0.3828125 0.9609375
vt 0.3828125 0.984375
vt 0.34375 0.984375
vt 0.3984375 0.9819993090793346
vt 0.40625 0.983894118649931
vt 0.40625 1
vt 0.3984375 0.9981051904294036
vt 0.375 0.99609375
vt 0.375 0.98828125
vt 0.390625 0.9921875
vt 0.390625 1
vt 0 0.6328125
vt 0.0390625 0.6328125
vt 0.0390625 0.65625
vt 0 0.65625
vt 0.71875 0.98828125
vt 0.71875 0.99609375
vt 0.703125 1
vt 0.703125 0.9921875
vt 0.3874257141102637 1
vt 0.3855309045396673 0.9921875
vt 0.4016367858897363 0.9921875
vt 0.4035315954603327 1
vt 0.015625 0.65625
vt 0.015625 0.6171875
vt 0.0390625 0.6171875
vt 0.0390625 0.65625
vt 0.40625 0.7163743090793346
vt 0.4140625 0.718269118649931
vt 0.4140625 0.734375
vt 0.40625 0.7324801904294036
vt 0.375 0.99609375
vt 0.375 0.98828125
vt 0.390625 0.9921875
vt 0.390625 1
vt 0.34375 0.6328125
vt 0.3828125 0.6328125
vt 0.3828125 0.65625
vt 0.34375 0.65625
vt 0.71875 0.98828125
vt 0.71875 0.99609375
vt 0.703125 1
vt 0.703125 0.9921875
vt 0.41086321411026366 0.78125
vt 0.4089684045396673 0.7734375
vt 0.42507428588973634 0.7734375
vt 0.4269690954603327 0.78125
vt 0.34375 0.65625
vt 0.34375 0.6171875
vt 0.3671875 0.6171875
vt 0.3671875 0.65625
vt 0.71875 0.98828125
vt 0.71875 0.99609375
vt 0.703125 1
vt 0.703125 0.9921875
vt 0.390625 0.9921875
vt 0.703125 0.9921875
vt 0.703125 1
vt 0.390625 1
vn -1 0 0
vn 0 1 0
vn 0 0 1
vn 0 0 -1
vn 0 1 0
vn 0 1 0
vn 0 1 0
vn 0 1 0
vn 0 0 -1
vn 0 0 1
vn -0.24253562503633297 0.9701425001453319 0
vn 1 0 0
vn -1 0 0
vn 0 0.9701425001453319 -0.24253562503633297
vn 0 0 1
vn 0 0 -1
vn 0.24253562503633297 0.9701425001453319 0
vn -1 0 0
vn 0 0.9701425001453319 -0.24253562503633297
vn -1 0 0
vn 1 0 0
vn 0 0.9701425001453319 0.24253562503633297
vn 0 0 1
vn 0 0 -1
vn 0.24253562503633297 0.9701425001453319 0
vn 0 0 -1
vn 0 0 1
vn -0.24253562503633297 0.9701425001453319 0
vn -1 0 0
vn 1 0 0
vn 0 0.9701425001453319 0.24253562503633297
vn 1 0 0
vn 1 0 0
usemtl m_2177bb41-de24-3e82-17d7-956db698eba0
f 6/1/1 15/2/1 14/3/1 7/4/1
f 5/5/2 17/6/2 16/7/2 11/8/2
f 4/9/3 19/10/3 18/11/3 1/12/3
f 2/13/4 23/14/4 22/15/4 3/16/4
f 5/17/5 11/18/5 15/19/5 6/20/5
f 1/21/6 18/22/6 17/23/6 5/24/6
f 11/25/7 16/26/7 23/27/7 2/28/7
f 12/29/8 16/30/8 17/31/8 10/32/8
f 24/33/9 26/34/9 2/35/9 3/36/9
f 27/37/10 25/38/10 13/39/10 11/40/10
f 26/41/11 27/42/11 11/43/11 2/44/11
f 28/45/12 30/46/12 11/47/12 13/48/12
f 31/49/13 29/50/13 14/51/13 15/52/13
f 30/53/14 31/54/14 15/55/14 11/56/14
f 32/57/15 34/58/15 16/59/15 21/60/15
f 35/61/16 33/62/16 22/63/16 23/64/16
f 34/65/17 35/66/17 23/67/17 16/68/17
f 38/69/18 36/70/18 21/71/18 16/72/18
f 37/73/19 38/74/19 16/75/19 12/76/19
f 39/77/20 41/78/20 17/79/20 20/80/20
f 42/81/21 40/82/21 9/83/21 10/84/21
f 41/85/22 42/86/22 10/87/22 17/88/22
f 43/89/23 45/90/23 18/91/23 19/92/23
f 46/93/24 44/94/24 20/95/24 17/96/24
f 45/97/25 46/98/25 17/99/25 18/100/25
f 47/101/26 49/102/26 5/103/26 8/104/26
f 50/105/27 48/106/27 4/107/27 1/108/27
f 49/109/28 50/110/28 1/111/28 5/112/28
f 51/113/29 53/114/29 6/115/29 7/116/29
f 54/117/30 52/118/30 8/119/30 5/120/30
f 53/121/31 54/122/31 5/123/31 6/124/31
f 55/125/32 37/126/32 12/127/32 56/128/32
f 9/129/33 56/130/33 12/131/33 10/132/33
o Brick (S)
v -1.375 0.125 -1.375
v -1.375 0.125 -1.5
v -1.375 0 -1.375
v -1.375 0 -1.5
v -1.5 0.125 -1.375
v -1.5 0.125 -1.5
v -1.5 0 -1.375
v -1.5 0 -1.5
v -1.484375 0.125 -1.375
v -1.484375 0.125 -1.5
v -1.484375 0 -1.5
v -1.484375 0 -1.375
v -1.390625 0.125 -1.5
v -1.390625 0.125 -1.375
v -1.390625 0 -1.375
v -1.390625 0 -1.5
v -1.390625 0.140625 -1.390625
v -1.484375 0.140625 -1.390625
v -1.5 0.125 -1.390625
v -1.5 0 -1.390625
v -1.375 0 -1.390625
v -1.375 0.125 -1.390625
v -1.484375 0.140625 -1.484375
v -1.390625 0.140625 -1.484375
v -1.375 0.125 -1.484375
v -1.375 0 -1.484375
v -1.5 0 -1.484375
v -1.5 0.125 -1.484375
vt 0 0.6015625
vt 0.015625 0.6015625
vt 0.015625 0.6171875
vt 0 0.6171875
vt 0.015625 0.6015625
vt 0 0.6015625
vt 0 0.5859375
vt 0.015625 0.5859375
vt 0.015625 0.5703125
vt 0.015625 0.5859375
vt 0 0.5859375
vt 0 0.5703125
vt 0 0.5546875
vt 0.015625 0.5546875
vt 0.015625 0.5703125
vt 0 0.5703125
vt 0.015625 0.5546875
vt 0 0.5546875
vt 0 0.5390625
vt 0.015625 0.5390625
vt 0.011718750000000003 0.5359375000000002
vt 0 0.5359375000000002
vt 0 0.5331750000000002
vt 0.011718750000000003 0.5331750000000002
vt 0.0234375 0.5703125
vt 0.021484375 0.5703125
vt 0.021484375 0.5546875
vt 0.0234375 0.5546875
vt 0.015625 0.5703125
vt 0.017578125 0.5703125
vt 0.017578125 0.5859375
vt 0.015625 0.5859375
vt 0 0.5363
vt 0.01171875 0.5363
vt 0.01171875 0.5390625
vt 0 0.5390625
vt 0.0234375 0.5859375
vt 0.021484375 0.5859375
vt 0.021484375 0.5703125
vt 0.0234375 0.5703125
vt 0.015625 0.5546875
vt 0.017578125 0.5546875
vt 0.017578125 0.5703125
vt 0.015625 0.5703125
vt 0.01171875 0.520675
vt 0.01171875 0.5234375
vt 0 0.5234375
vt 0 0.520675
vt 0.0031491989154755484 0.5167696063924649
vt 0.0031491989154755484 0.51953125
vt 0.0007570510845244516 0.5181512847214822
vt 0.001554173197418962 0.5167697264010344
vt 0.0234375 0.6015625
vt 0.021484375 0.6015625
vt 0.021484375 0.5859375
vt 0.0234375 0.5859375
vt 0.015625 0.6015625
vt 0.017578125 0.6015625
vt 0.017578125 0.6171875
vt 0.015625 0.6171875
vt 0.0009765624999999931 0.50895625
vt 0.0029296874999999913 0.50895625
vt 0.0029296874999999913 0.51171875
vt 0.0009765624999999931 0.5103375000000001
vt 0.01171875 0.5238
vt 0.01171875 0.5265625
vt 0 0.5265625
vt 0 0.5238
vt 0.0031491989154755484 0.5128633563924649
vt 0.0031491989154755484 0.515625
vt 0.0007570510845244516 0.5142450347214822
vt 0.001554173197418962 0.5128634764010344
vt 0.0234375 0.6171875
vt 0.021484375 0.6171875
vt 0.021484375 0.6015625
vt 0.0234375 0.6015625
vt 0.015625 0.5859375
vt 0.017578125 0.5859375
vt 0.017578125 0.6015625
vt 0.015625 0.6015625
vt 0.0009765625 0.50505
vt 0.0029296875 0.50505
vt 0.0029296875 0.5078125
vt 0.0009765625 0.50643125
vn 1 0 0
vn -1 0 0
vn 0 1 0
vn 0 0 1
vn 0 0 -1
vn -0.7071067811865476 0.7071067811865476 0
vn 0 0 -1
vn 0 0 1
vn 0.7071067811865476 0.7071067811865476 0
vn 0 0 1
vn 0 0 -1
vn 0 0.7071067811865476 0.7071067811865476
vn -0.5773502691896258 0.5773502691896258 0.5773502691896258
vn -1 0 0
vn 1 0 0
vn 0.7071067811865476 0.7071067811865476 0
vn 0 0.7071067811865476 -0.7071067811865476
vn 0.5773502691896258 0.5773502691896258 -0.5773502691896258
vn 1 0 0
vn -1 0 0
vn -0.7071067811865476 0.7071067811865476 0
usemtl m_2177bb41-de24-3e82-17d7-956db698eba0
f 77/133/34 82/134/34 81/135/34 78/136/34
f 75/137/35 84/138/35 83/139/35 76/140/35
f 73/141/36 80/142/36 79/143/36 74/144/36
f 68/145/37 71/146/37 70/147/37 65/148/37
f 66/149/38 69/150/38 72/151/38 67/152/38
f 74/153/39 79/154/39 84/155/39 75/156/39
f 62/157/40 66/158/40 67/159/40 64/160/40
f 63/161/41 68/162/41 65/163/41 61/164/41
f 78/165/42 81/166/42 80/167/42 73/168/42
f 57/169/43 70/170/43 71/171/43 59/172/43
f 60/173/44 72/174/44 69/175/44 58/176/44
f 70/177/45 73/178/45 74/179/45 65/180/45
f 65/181/46 74/182/46 75/183/46 61/184/46
f 61/185/47 75/186/47 76/187/47 63/188/47
f 59/189/48 77/190/48 78/191/48 57/192/48
f 57/193/49 78/194/49 73/195/49 70/196/49
f 66/197/50 79/198/50 80/199/50 69/200/50
f 69/201/51 80/202/51 81/203/51 58/204/51
f 58/205/52 81/206/52 82/207/52 60/208/52
f 64/209/53 83/210/53 84/211/53 62/212/53
f 62/213/54 84/214/54 79/215/54 66/216/54
o Brick (S)
v 1.5 0.125 1.5
v 1.5 0.125 1.375
v 1.5 0 1.5
v 1.5 0 1.375
v 1.375 0.125 1.5
v 1.375 0.125 1.375
v 1.375 0 1.5
v 1.375 0 1.375
v 1.390625 0.125 1.5
v 1.390625 0.125 1.375
v 1.390625 0 1.375
v 1.390625 0 1.5
v 1.484375 0.125 1.375
v 1.484375 0.125 1.5
v 1.484375 0 1.5
v 1.484375 0 1.375
v 1.484375 0.140625 1.484375
v 1.390625 0.140625 1.484375
v 1.375 0.125 1.484375
v 1.375 0 1.484375
v 1.5 0 1.484375
v 1.5 0.125 1.484375
v 1.390625 0.140625 1.390625
v 1.484375 0.140625 1.390625
v 1.5 0.125 1.390625
v 1.5 0 1.390625
v 1.375 0 1.390625
v 1.375 0.125 1.390625
vt 0.1171875 0.6015625
vt 0.1328125 0.6015625
vt 0.1328125 0.6171875
vt 0.1171875 0.6171875
vt 0.1484375 0.6171875
vt 0.1328125 0.6171875
vt 0.1328125 0.6015625
vt 0.1484375 0.6015625
vt 0.1171875 0.6015625
vt 0.1171875 0.6171875
vt 0.1015625 0.6171875
vt 0.1015625 0.6015625
vt 0.1484375 0.6015625
vt 0.1640625 0.6015625
vt 0.1640625 0.6171875
vt 0.1484375 0.6171875
vt 0.1796875 0.6171875
vt 0.1640625 0.6171875
vt 0.1640625 0.6015625
vt 0.1796875 0.6015625
vt 0.2333984375 0.5234375
vt 0.2216796875 0.5234375
vt 0.2216796875 0.520675
vt 0.2333984375 0.520675
vt 0.203125 0.59375
vt 0.201171875 0.59375
vt 0.201171875 0.578125
vt 0.203125 0.578125
vt 0.1640625 0.578125
vt 0.166015625 0.578125
vt 0.166015625 0.59375
vt 0.1640625 0.59375
vt 0.2216796875 0.50505
vt 0.2333984375 0.50505
vt 0.2333984375 0.5078125
vt 0.2216796875 0.5078125
vt 0.1796875 0.59375
vt 0.177734375 0.59375
vt 0.177734375 0.578125
vt 0.1796875 0.578125
vt 0.1875 0.578125
vt 0.189453125 0.578125
vt 0.189453125 0.59375
vt 0.1875 0.59375
vt 0.14768044891547555 0.489425
vt 0.14768044891547555 0.4921875
vt 0.13596169891547555 0.4921875
vt 0.13596169891547555 0.489425
vt 0.13596169891547555 0.48942585639246494
vt 0.13596169891547555 0.4921875
vt 0.13356955108452445 0.4908075347214822
vt 0.13436667319741896 0.48942597640103436
vt 0.1328125 0.59375
vt 0.130859375 0.59375
vt 0.130859375 0.578125
vt 0.1328125 0.578125
vt 0.09375 0.578125
vt 0.095703125 0.578125
vt 0.095703125 0.59375
vt 0.09375 0.59375
vt 0.2197265625 0.50505
vt 0.2216796875 0.50505
vt 0.2216796875 0.5078125
vt 0.2197265625 0.50643125
vt 0.21018044891547555 0.551925
vt 0.21018044891547555 0.5546875
vt 0.19846169891547555 0.5546875
vt 0.19846169891547555 0.551925
vt 0.19846169891547555 0.5519258563924649
vt 0.19846169891547555 0.5546875
vt 0.19606955108452445 0.5533075347214822
vt 0.19686667319741896 0.5519259764010344
vt 0.109375 0.59375
vt 0.107421875 0.59375
vt 0.107421875 0.578125
vt 0.109375 0.578125
vt 0.1171875 0.578125
vt 0.119140625 0.578125
vt 0.119140625 0.59375
vt 0.1171875 0.59375
vt 0.2197265625 0.520675
vt 0.2216796875 0.520675
vt 0.2216796875 0.5234375
vt 0.2197265625 0.52205625
vn 1 0 0
vn -1 0 0
vn 0 1 0
vn 0 0 1
vn 0 0 -1
vn -0.7071067811865476 0.7071067811865476 0
vn 0 0 -1
vn 0 0 1
vn 0.7071067811865476 0.7071067811865476 0
vn 0 0 1
vn 0 0 -1
vn 0 0.7071067811865476 0.7071067811865476
vn -0.5773502691896258 0.5773502691896258 0.5773502691896258
vn -1 0 0
vn 1 0 0
vn 0.7071067811865476 0.7071067811865476 0
vn 0 0.7071067811865476 -0.7071067811865476
vn 0.5773502691896258 0.5773502691896258 -0.5773502691896258
vn 1 0 0
vn -1 0 0
vn -0.7071067811865476 0.7071067811865476 0
usemtl m_2177bb41-de24-3e82-17d7-956db698eba0
f 105/217/55 110/218/55 109/219/55 106/220/55
f 103/221/56 112/222/56 111/223/56 104/224/56
f 101/225/57 108/226/57 107/227/57 102/228/57
f 96/229/58 99/230/58 98/231/58 93/232/58
f 94/233/59 97/234/59 100/235/59 95/236/59
f 102/237/60 107/238/60 112/239/60 103/240/60
f 90/241/61 94/242/61 95/243/61 92/244/61
f 91/245/62 96/246/62 93/247/62 89/248/62
f 106/249/63 109/250/63 108/251/63 101/252/63
f 85/253/64 98/254/64 99/255/64 87/256/64
f 88/257/65 100/258/65 97/259/65 86/260/65
f 98/261/66 101/262/66 102/263/66 93/264/66
f 93/265/67 102/266/67 103/267/67 89/268/67
f 89/269/68 103/270/68 104/271/68 91/272/68
f 87/273/69 105/274/69 106/275/69 85/276/69
f 85/277/70 106/278/70 101/279/70 98/280/70
f 94/281/71 107/282/71 108/283/71 97/284/71
f 97/285/72 108/286/72 109/287/72 86/288/72
f 86/289/73 109/290/73 110/291/73 88/292/73
f 92/293/74 111/294/74 112/295/74 90/296/74
f 90/297/75 112/298/75 107/299/75 94/300/75
o Brick (S)
v -1.375 0.125 1.5
v -1.375 0.125 1.375
v -1.375 0 1.5
v -1.375 0 1.375
v -1.5 0.125 1.5
v -1.5 0.125 1.375
v -1.5 0 1.5
v -1.5 0 1.375
v -1.484375 0.125 1.5
v -1.484375 0.125 1.375
v -1.484375 0 1.375
v -1.484375 0 1.5
v -1.390625 0.125 1.375
v -1.390625 0.125 1.5
v -1.390625 0 1.5
v -1.390625 0 1.375
v -1.390625 0.140625 1.484375
v -1.484375 0.140625 1.484375
v -1.5 0.125 1.484375
v -1.5 0 1.484375
v -1.375 0 1.484375
v -1.375 0.125 1.484375
v -1.484375 0.140625 1.390625
v -1.390625 0.140625 1.390625
v -1.375 0.125 1.390625
v -1.375 0 1.390625
v -1.5 0 1.390625
v -1.5 0.125 1.390625
vt 0.0703125 0.5390625
vt 0.0859375 0.5390625
vt 0.0859375 0.5546875
vt 0.0703125 0.5546875
vt 0.0859375 0.6015625
vt 0.0703125 0.6015625
vt 0.0703125 0.5859375
vt 0.0859375 0.5859375
vt 0.0859375 0.5703125
vt 0.0859375 0.5859375
vt 0.0703125 0.5859375
vt 0.0703125 0.5703125
vt 0.0703125 0.6015625
vt 0.0859375 0.6015625
vt 0.0859375 0.6171875
vt 0.0703125 0.6171875
vt 0.0859375 0.5703125
vt 0.0703125 0.5703125
vt 0.0703125 0.5546875
vt 0.0859375 0.5546875
vt 0.0830078125 0.53125
vt 0.0712890625 0.53125
vt 0.0712890625 0.5284875
vt 0.0830078125 0.5284875
vt 0.1015625 0.5859375
vt 0.099609375 0.5859375
vt 0.099609375 0.5703125
vt 0.1015625 0.5703125
vt 0.0859375 0.5859375
vt 0.087890625 0.5859375
vt 0.087890625 0.6015625
vt 0.0859375 0.6015625
vt 0.0712890625 0.53239375
vt 0.0830078125 0.53239375
vt 0.0830078125 0.53515625
vt 0.0712890625 0.53515625
vt 0.1015625 0.6015625
vt 0.099609375 0.6015625
vt 0.099609375 0.5859375
vt 0.1015625 0.5859375
vt 0.0859375 0.5703125
vt 0.087890625 0.5703125
vt 0.087890625 0.5859375
vt 0.0859375 0.5859375
vt 0.08322732391547555 0.52458125
vt 0.08322732391547555 0.52734375
vt 0.07150857391547555 0.52734375
vt 0.07150857391547555 0.52458125
vt 0.08908669891547555 0.5363008563924649
vt 0.08908669891547555 0.5390625
vt 0.08669455108452445 0.5376825347214822
vt 0.08749167319741896 0.5363009764010344
vt 0.1015625 0.6171875
vt 0.099609375 0.6171875
vt 0.099609375 0.6015625
vt 0.1015625 0.6015625
vt 0.0859375 0.5546875
vt 0.087890625 0.5546875
vt 0.087890625 0.5703125
vt 0.0859375 0.5703125
vt 0.0869140625 0.520675
vt 0.0888671875 0.520675
vt 0.0888671875 0.5234375
vt 0.0869140625 0.52205625
vt 0.08322732391547555 0.5363
vt 0.08322732391547555 0.5390625
vt 0.07150857391547555 0.5390625
vt 0.07150857391547555 0.5363
vt 0.08908669891547555 0.5128633563924649
vt 0.08908669891547555 0.515625
vt 0.08669455108452445 0.5142450347214822
vt 0.08749167319741896 0.5128634764010344
vt 0.1015625 0.5703125
vt 0.099609375 0.5703125
vt 0.099609375 0.5546875
vt 0.1015625 0.5546875
vt 0.0859375 0.6015625
vt 0.087890625 0.6015625
vt 0.087890625 0.6171875
vt 0.0859375 0.6171875
vt 0.0869140625 0.5284875
vt 0.0888671875 0.5284875
vt 0.0888671875 0.53125
vt 0.0869140625 0.52986875
vn 1 0 0
vn -1 0 0
vn 0 1 0
vn 0 0 1
vn 0 0 -1
vn -0.7071067811865476 0.7071067811865476 0
vn 0 0 -1
vn 0 0 1
vn 0.7071067811865476 0.7071067811865476 0
vn 0 0 1
vn 0 0 -1
vn 0 0.7071067811865476 0.7071067811865476
vn -0.5773502691896258 0.5773502691896258 0.5773502691896258
vn -1 0 0
vn 1 0 0
vn 0.7071067811865476 0.7071067811865476 0
vn 0 0.7071067811865476 -0.7071067811865476
vn 0.5773502691896258 0.5773502691896258 -0.5773502691896258
vn 1 0 0
vn -1 0 0
vn -0.7071067811865476 0.7071067811865476 0
usemtl m_2177bb41-de24-3e82-17d7-956db698eba0
f 133/301/76 138/302/76 137/303/76 134/304/76
f 131/305/77 140/306/77 139/307/77 132/308/77
f 129/309/78 136/310/78 135/311/78 130/312/78
f 124/313/79 127/314/79 126/315/79 121/316/79
f 122/317/80 125/318/80 128/319/80 123/320/80
f 130/321/81 135/322/81 140/323/81 131/324/81
f 118/325/82 122/326/82 123/327/82 120/328/82
f 119/329/83 124/330/83 121/331/83 117/332/83
f 134/333/84 137/334/84 136/335/84 129/336/84
f 113/337/85 126/338/85 127/339/85 115/340/85
f 116/341/86 128/342/86 125/343/86 114/344/86
f 126/345/87 129/346/87 130/347/87 121/348/87
f 121/349/88 130/350/88 131/351/88 117/352/88
f 117/353/89 131/354/89 132/355/89 119/356/89
f 115/357/90 133/358/90 134/359/90 113/360/90
f 113/361/91 134/362/91 129/363/91 126/364/91
f 122/365/92 135/366/92 136/367/92 125/368/92
f 125/369/93 136/370/93 137/371/93 114/372/93
f 114/373/94 137/374/94 138/375/94 116/376/94
f 120/377/95 139/378/95 140/379/95 118/380/95
f 118/381/96 140/382/96 135/383/96 122/384/96
o Brick (S)
v 1.5 0.125 -1.375
v 1.5 0.125 -1.5
v 1.5 0 -1.375
v 1.5 0 -1.5
v 1.375 0.125 -1.375
v 1.375 0.125 -1.5
v 1.375 0 -1.375
v 1.375 0 -1.5
v 1.390625 0.125 -1.375
v 1.390625 0.125 -1.5
v 1.390625 0 -1.5
v 1.390625 0 -1.375
v 1.484375 0.125 -1.5
v 1.484375 0.125 -1.375
v 1.484375 0 -1.375
v 1.484375 0 -1.5
v 1.484375 0.140625 -1.390625
v 1.390625 0.140625 -1.390625
v 1.375 0.125 -1.390625
v 1.375 0 -1.390625
v 1.5 0 -1.390625
v 1.5 0.125 -1.390625
v 1.390625 0.140625 -1.484375
v 1.484375 0.140625 -1.484375
v 1.5 0.125 -1.484375
v 1.5 0 -1.484375
v 1.375 0 -1.484375
v 1.375 0.125 -1.484375
vt 0.03125 0.5234375
vt 0.046875 0.5234375
vt 0.046875 0.5390625
vt 0.03125 0.5390625
vt 0.03125 0.5390625
vt 0.015625 0.5390625
vt 0.015625 0.5234375
vt 0.03125 0.5234375
vt 0.015625 0.5234375
vt 0.015625 0.5390625
vt 0 0.5390625
vt 0 0.5234375
vt 0.046875 0.5234375
vt 0.0625 0.5234375
vt 0.0625 0.5390625
vt 0.046875 0.5390625
vt 0.078125 0.5390625
vt 0.0625 0.5390625
vt 0.0625 0.5234375
vt 0.078125 0.5234375
vt 0.0302734375 0.484375
vt 0.0185546875 0.484375
vt 0.0185546875 0.4816125
vt 0.0302734375 0.4816125
vt 0.0390625 0.5234375
vt 0.037109375 0.5234375
vt 0.037109375 0.5078125
vt 0.0390625 0.5078125
vt 0 0.5078125
vt 0.001953125 0.5078125
vt 0.001953125 0.5234375
vt 0 0.5234375
vt 0.0029296875 0.4816125
vt 0.0146484375 0.4816125
vt 0.0146484375 0.484375
vt 0.0029296875 0.484375
vt 0.015625 0.5234375
vt 0.013671875 0.5234375
vt 0.013671875 0.5078125
vt 0.015625 0.5078125
vt 0.0234375 0.5078125
vt 0.025390625 0.5078125
vt 0.025390625 0.5234375
vt 0.0234375 0.5234375
vt 0.014867948915475548 0.50505
vt 0.014867948915475548 0.5078125
vt 0.0031491989154755484 0.5078125
vt 0.0031491989154755484 0.50505
vt 0.0031491989154755484 0.5050508563924649
vt 0.0031491989154755484 0.5078125
vt 0.0007570510845244516 0.5064325347214822
vt 0.001554173197418962 0.5050509764010344
vt 0.078125 0.5234375
vt 0.076171875 0.5234375
vt 0.076171875 0.5078125
vt 0.078125 0.5078125
vt 0.046875 0.5078125
vt 0.048828125 0.5078125
vt 0.048828125 0.5234375
vt 0.046875 0.5234375
vt 0.0009765625 0.4816125
vt 0.0029296875 0.4816125
vt 0.0029296875 0.484375
vt 0.0009765625 0.48299375
vt 0.014867948915475548 0.489425
vt 0.014867948915475548 0.4921875
vt 0.0031491989154755484 0.4921875
vt 0.0031491989154755484 0.489425
vt 0.0031491989154755484 0.48942585639246494
vt 0.0031491989154755484 0.4921875
vt 0.0007570510845244516 0.4908075347214822
vt 0.001554173197418962 0.48942597640103436
vt 0.0625 0.5234375
vt 0.060546875 0.5234375
vt 0.060546875 0.5078125
vt 0.0625 0.5078125
vt 0.0625 0.5078125
vt 0.064453125 0.5078125
vt 0.064453125 0.5234375
vt 0.0625 0.5234375
vt 0.0166015625 0.4816125
vt 0.0185546875 0.4816125
vt 0.0185546875 0.484375
vt 0.0166015625 0.48299375
vn 1 0 0
vn -1 0 0
vn 0 1 0
vn 0 0 1
vn 0 0 -1
vn -0.7071067811865476 0.7071067811865476 0
vn 0 0 -1
vn 0 0 1
vn 0.7071067811865476 0.7071067811865476 0
vn 0 0 1
vn 0 0 -1
vn 0 0.7071067811865476 0.7071067811865476
vn -0.5773502691896258 0.5773502691896258 0.5773502691896258
vn -1 0 0
vn 1 0 0
vn 0.7071067811865476 0.7071067811865476 0
vn 0 0.7071067811865476 -0.7071067811865476
vn 0.5773502691896258 0.5773502691896258 -0.5773502691896258
vn 1 0 0
vn -1 0 0
vn -0.7071067811865476 0.7071067811865476 0
usemtl m_2177bb41-de24-3e82-17d7-956db698eba0
f 161/385/97 166/386/97 165/387/97 162/388/97
f 159/389/98 168/390/98 167/391/98 160/392/98
f 157/393/99 164/394/99 163/395/99 158/396/99
f 152/397/100 155/398/100 154/399/100 149/400/100
f 150/401/101 153/402/101 156/403/101 151/404/101
f 158/405/102 163/406/102 168/407/102 159/408/102
f 146/409/103 150/410/103 151/411/103 148/412/103
f 147/413/104 152/414/104 149/415/104 145/416/104
f 162/417/105 165/418/105 164/419/105 157/420/105
f 141/421/106 154/422/106 155/423/106 143/424/106
f 144/425/107 156/426/107 153/427/107 142/428/107
f 154/429/108 157/430/108 158/431/108 149/432/108
f 149/433/109 158/434/109 159/435/109 145/436/109
f 145/437/110 159/438/110 160/439/110 147/440/110
f 143/441/111 161/442/111 162/443/111 141/444/111
f 141/445/112 162/446/112 157/447/112 154/448/112
f 150/449/113 163/450/113 164/451/113 153/452/113
f 153/453/114 164/454/114 165/455/114 142/456/114
f 142/457/115 165/458/115 166/459/115 144/460/115
f 148/461/116 167/462/116 168/463/116 146/464/116
f 146/465/117 168/466/117 163/467/117 150/468/117